<svg xmlns="http://www.w3.org/2000/svg" xmlns:xlink="http://www.w3.org/1999/xlink" width="500" zoomAndPan="magnify" viewBox="0 0 375 374.999991" height="500" preserveAspectRatio="xMidYMid meet" version="1.0"><path fill="#ffe493" d="M 125.605469 254.632812 C 125.496094 254.328125 114.242188 220.210938 114.242188 173.320312 C 114.242188 125.277344 136.277344 88.402344 146.949219 78.070312 L 149.050781 80.242188 C 138.683594 90.28125 117.265625 126.246094 117.265625 173.320312 C 117.265625 219.632812 128.335938 253.292969 128.445312 253.589844 Z M 125.605469 254.632812 " fill-opacity="1" fill-rule="nonzero"/><path fill="#ffe493" d="M 134.894531 97.636719 C 134.894531 97.636719 133.636719 83.101562 121.671875 69.59375 C 109.710938 56.085938 99.417969 56.34375 91.699219 51.328125 C 91.699219 51.328125 104.949219 54.027344 114.082031 55.316406 C 123.214844 56.601562 130.550781 64.578125 133.121094 75.640625 C 135.695312 86.703125 134.894531 97.636719 134.894531 97.636719 " fill-opacity="1" fill-rule="nonzero"/><path fill="#ffe493" d="M 143.203125 84.679688 C 143.203125 84.679688 143.628906 66.121094 131.878906 49.65625 C 120.128906 33.1875 112.152344 27.402344 112.152344 27.402344 C 112.152344 27.402344 125.148438 34.476562 133.894531 41.164062 C 142.640625 47.855469 147.105469 72.878906 143.203125 84.679688 " fill-opacity="1" fill-rule="nonzero"/><path fill="#ffe493" d="M 148.6875 81.941406 C 148.6875 81.941406 155.632812 71.78125 150.359375 54.027344 C 145.085938 36.277344 134.75 25.597656 131.878906 19.8125 C 140.96875 29.585938 153.316406 39.75 156.148438 48.238281 C 158.976562 56.730469 159.75 68.308594 148.6875 81.941406 " fill-opacity="1" fill-rule="nonzero"/><path fill="#ffe493" d="M 149.714844 75.898438 C 149.714844 75.898438 162.964844 52.484375 169.914062 39.363281 C 176.859375 26.242188 187.535156 15.179688 214.808594 21.484375 C 242.078125 27.785156 256.097656 40.652344 256.097656 40.652344 C 256.097656 40.652344 235.261719 30.101562 209.277344 31.773438 C 201.042969 32.160156 184.191406 34.476562 174.285156 44.894531 C 164.382812 55.316406 153.574219 72.296875 149.714844 75.898438 " fill-opacity="1" fill-rule="nonzero"/><path fill="#ffe493" d="M 153.574219 72.296875 C 153.574219 72.296875 164.382812 59.753906 172.355469 52.804688 C 180.332031 45.859375 195.125 34.796875 207.21875 37.628906 C 219.308594 40.457031 226.898438 49.71875 234.230469 55.957031 C 241.5625 62.195312 249.089844 68.757812 249.089844 68.757812 C 249.089844 68.757812 229.988281 55.894531 219.308594 51.261719 C 208.632812 46.632812 190.042969 49.785156 177.179688 55.765625 C 164.316406 61.746094 153.574219 72.296875 153.574219 72.296875 " fill-opacity="1" fill-rule="nonzero"/><path fill="#ffe493" d="M 152.804688 74.097656 C 152.804688 74.097656 172.933594 58.386719 187.148438 53.835938 C 201.367188 49.285156 217.445312 49.785156 229.152344 63.964844 C 240.855469 78.148438 257.386719 97.832031 255.007812 97.574219 C 252.628906 97.316406 235.132812 80.914062 218.214844 73.261719 C 201.300781 65.605469 175.121094 61.746094 152.804688 75.125 C 152.480469 74.867188 152.804688 74.097656 152.804688 74.097656 " fill-opacity="1" fill-rule="nonzero"/><path fill="#ffe493" d="M 148.75 77.183594 C 148.75 77.183594 188.371094 64.960938 212.234375 77.3125 C 225.546875 83.421875 228.183594 100.082031 231.59375 115.644531 C 235.003906 131.210938 236.355469 143.109375 236.097656 143.046875 C 235.839844 142.980469 224.777344 117.253906 214.613281 103.875 C 204.453125 90.496094 187.292969 80.355469 174.800781 77.183594 C 162.308594 74.011719 148.75 77.183594 148.75 77.183594 " fill-opacity="1" fill-rule="nonzero"/><path fill="#ffe493" d="M 149.117188 79.15625 C 149.117188 79.15625 175.445312 79.242188 194.824219 88.589844 C 214.207031 97.9375 216.4375 112.429688 215.75 132.925781 C 215.066406 153.421875 212.148438 166.628906 211.203125 166.113281 C 210.261719 165.601562 207.6875 135.5 199.371094 118.777344 C 191.050781 102.054688 179.5625 88.914062 168.070312 84.214844 C 156.574219 79.519531 149.117188 79.15625 149.117188 79.15625 " fill-opacity="1" fill-rule="nonzero"/><path fill="#ffffff" d="M 163.957031 254.015625 C 163.867188 253.769531 154.90625 228.894531 154.90625 190.550781 C 154.90625 151.273438 172.921875 121.121094 181.648438 112.671875 L 183.367188 114.449219 C 174.886719 122.65625 157.378906 152.0625 157.378906 190.550781 C 157.378906 228.421875 166.1875 252.921875 166.277344 253.167969 Z M 163.957031 254.015625 " fill-opacity="1" fill-rule="nonzero"/><path fill="#ffffff" d="M 171.792969 128.667969 C 171.792969 128.667969 170.761719 116.785156 160.980469 105.742188 C 151.199219 94.695312 142.785156 94.90625 136.472656 90.804688 C 136.472656 90.804688 147.304688 93.011719 154.773438 94.066406 C 162.242188 95.117188 168.238281 101.636719 170.339844 110.683594 C 172.445312 119.730469 171.792969 128.667969 171.792969 128.667969 " fill-opacity="1" fill-rule="nonzero"/><path fill="#ffffff" d="M 178.582031 118.074219 C 178.582031 118.074219 178.929688 102.902344 169.324219 89.4375 C 159.71875 75.972656 153.195312 71.242188 153.195312 71.242188 C 153.195312 71.242188 163.820312 77.027344 170.972656 82.496094 C 178.125 87.964844 181.777344 108.425781 178.582031 118.074219 " fill-opacity="1" fill-rule="nonzero"/><path fill="#ffffff" d="M 183.070312 115.839844 C 183.070312 115.839844 188.75 107.527344 184.4375 93.015625 C 180.125 78.5 171.675781 69.769531 169.324219 65.035156 C 176.757812 73.027344 186.855469 81.339844 189.167969 88.28125 C 191.484375 95.222656 192.113281 104.6875 183.070312 115.839844 " fill-opacity="1" fill-rule="nonzero"/><path fill="#ffffff" d="M 183.910156 110.894531 C 183.910156 110.894531 194.742188 91.75 200.421875 81.023438 C 206.101562 70.292969 214.832031 61.25 237.132812 66.402344 C 259.429688 71.558594 270.894531 82.074219 270.894531 82.074219 C 270.894531 82.074219 253.855469 73.449219 232.609375 74.816406 C 225.878906 75.132812 212.097656 77.027344 204 85.546875 C 195.902344 94.066406 187.066406 107.949219 183.910156 110.894531 " fill-opacity="1" fill-rule="nonzero"/><path fill="#ffffff" d="M 187.066406 107.949219 C 187.066406 107.949219 195.902344 97.695312 202.421875 92.015625 C 208.945312 86.335938 221.039062 77.289062 230.925781 79.601562 C 240.8125 81.917969 247.019531 89.488281 253.015625 94.589844 C 259.011719 99.691406 265.164062 105.058594 265.164062 105.058594 C 265.164062 105.058594 249.542969 94.539062 240.8125 90.753906 C 232.082031 86.964844 216.882812 89.542969 206.367188 94.433594 C 195.847656 99.324219 187.066406 107.949219 187.066406 107.949219 " fill-opacity="1" fill-rule="nonzero"/><path fill="#ffffff" d="M 186.433594 109.421875 C 186.433594 109.421875 202.894531 96.578125 214.519531 92.855469 C 226.140625 89.136719 239.289062 89.542969 248.859375 101.140625 C 258.429688 112.734375 271.949219 128.828125 270 128.617188 C 268.054688 128.40625 253.75 114.996094 239.917969 108.738281 C 226.085938 102.480469 204.683594 99.324219 186.433594 110.261719 C 186.171875 110.054688 186.433594 109.421875 186.433594 109.421875 " fill-opacity="1" fill-rule="nonzero"/><path fill="#ffffff" d="M 183.121094 111.945312 C 183.121094 111.945312 215.515625 101.953125 235.027344 112.050781 C 245.914062 117.046875 248.070312 130.667969 250.859375 143.394531 C 253.644531 156.121094 254.75 165.851562 254.539062 165.800781 C 254.328125 165.746094 245.285156 144.710938 236.972656 133.773438 C 228.664062 122.832031 214.636719 114.539062 204.421875 111.945312 C 194.207031 109.351562 183.121094 111.945312 183.121094 111.945312 " fill-opacity="1" fill-rule="nonzero"/><path fill="#ffffff" d="M 183.417969 113.558594 C 183.417969 113.558594 204.945312 113.628906 220.792969 121.273438 C 236.640625 128.917969 238.464844 140.765625 237.902344 157.523438 C 237.34375 174.285156 234.957031 185.082031 234.1875 184.664062 C 233.414062 184.242188 231.3125 159.628906 224.511719 145.957031 C 217.707031 132.28125 208.3125 121.539062 198.917969 117.695312 C 189.519531 113.855469 183.417969 113.558594 183.417969 113.558594 " fill-opacity="1" fill-rule="nonzero"/><path fill="#ffe493" d="M 56.855469 276.53125 L 51.4375 276.53125 L 53.046875 306.117188 L 69.058594 276.53125 L 63.9375 276.53125 L 64.175781 275.578125 L 75.785156 275.578125 L 75.488281 276.53125 L 70.367188 276.53125 L 48.816406 316.417969 L 47.746094 316.417969 L 45.542969 276.53125 L 40.722656 276.53125 L 41.019531 275.578125 L 57.152344 275.578125 Z M 56.855469 276.53125 " fill-opacity="1" fill-rule="nonzero"/><path fill="#ffe493" d="M 110.316406 286.054688 L 110.316406 285.816406 C 110.355469 285.578125 110.382812 285.3125 110.40625 285.015625 C 110.425781 284.714844 110.433594 284.410156 110.433594 284.089844 C 110.433594 283.339844 110.355469 282.515625 110.195312 281.621094 C 110.039062 280.726562 109.730469 279.902344 109.273438 279.148438 C 108.816406 278.398438 108.203125 277.773438 107.429688 277.273438 C 106.65625 276.777344 105.671875 276.53125 104.480469 276.53125 L 96.859375 276.53125 L 92.039062 294.035156 L 96.445312 294.035156 C 97.277344 294.035156 97.992188 293.863281 98.585938 293.527344 C 99.183594 293.191406 99.71875 292.753906 100.195312 292.21875 C 100.671875 291.683594 101.078125 291.085938 101.414062 290.433594 C 101.753906 289.777344 102.078125 289.132812 102.398438 288.496094 C 102.597656 287.902344 102.832031 287.605469 103.113281 287.605469 C 103.351562 287.605469 103.46875 287.78125 103.46875 288.140625 L 103.46875 288.4375 C 103.46875 288.554688 103.429688 288.734375 103.351562 288.972656 L 100.136719 301 C 99.9375 301.632812 99.71875 301.953125 99.480469 301.953125 C 99.164062 301.953125 99.003906 301.535156 99.003906 300.699219 C 99.003906 299.90625 98.984375 299.164062 98.945312 298.46875 C 98.90625 297.773438 98.796875 297.167969 98.617188 296.652344 C 98.4375 296.136719 98.160156 295.730469 97.785156 295.433594 C 97.40625 295.136719 96.859375 294.984375 96.148438 294.984375 L 91.742188 294.984375 L 86.324219 314.632812 L 94.121094 314.632812 C 96.027344 314.632812 97.636719 314.363281 98.945312 313.828125 C 100.253906 313.292969 101.375 312.570312 102.308594 311.65625 C 103.242188 310.742188 104.042969 309.691406 104.71875 308.5 C 105.394531 307.308594 106.050781 306.078125 106.683594 304.808594 C 107.082031 303.976562 107.417969 303.558594 107.695312 303.558594 C 107.855469 303.558594 107.933594 303.71875 107.933594 304.035156 L 107.933594 304.332031 C 107.933594 304.453125 107.894531 304.609375 107.816406 304.808594 L 105.078125 313.679688 C 104.878906 314.234375 104.628906 314.691406 104.332031 315.050781 C 104.035156 315.40625 103.527344 315.585938 102.8125 315.585938 L 75.371094 315.585938 L 75.609375 314.632812 L 80.609375 314.632812 L 91.144531 276.53125 L 86.027344 276.53125 L 86.324219 275.578125 L 111.683594 275.578125 C 112.714844 275.578125 113.234375 275.976562 113.234375 276.769531 C 113.234375 276.96875 113.210938 277.125 113.171875 277.246094 L 111.207031 286.054688 C 111.167969 286.453125 110.988281 286.652344 110.671875 286.652344 C 110.433594 286.652344 110.316406 286.453125 110.316406 286.054688 " fill-opacity="1" fill-rule="nonzero"/><path fill="#ffe493" d="M 131.390625 302.1875 L 142.640625 302.1875 L 144.90625 284.984375 Z M 120.257812 314.632812 L 151.632812 275.042969 L 152.285156 275.042969 L 147.167969 314.632812 L 152.285156 314.632812 L 151.988281 315.585938 L 134.546875 315.585938 L 134.785156 314.632812 L 141.035156 314.632812 L 142.523438 303.140625 L 130.675781 303.140625 L 121.449219 314.632812 L 128.355469 314.632812 L 128.117188 315.585938 L 114.898438 315.585938 L 115.136719 314.632812 Z M 120.257812 314.632812 " fill-opacity="1" fill-rule="nonzero"/><path fill="#ffe493" d="M 183.601562 294.210938 C 185.308594 294.210938 186.765625 293.855469 187.976562 293.140625 C 189.1875 292.425781 190.179688 291.503906 190.953125 290.371094 C 191.726562 289.242188 192.292969 287.980469 192.648438 286.59375 C 193.007812 285.203125 193.1875 283.832031 193.1875 282.484375 C 193.1875 280.578125 192.730469 279.109375 191.816406 278.078125 C 190.902344 277.046875 189.394531 276.53125 187.292969 276.53125 L 182.765625 276.53125 L 177.828125 294.210938 Z M 191.636719 314.066406 C 191.914062 314.363281 192.414062 314.511719 193.125 314.511719 C 193.601562 314.511719 194.109375 314.433594 194.644531 314.273438 C 195.179688 314.117188 195.664062 313.917969 196.101562 313.679688 C 196.261719 313.601562 196.359375 313.5625 196.402344 313.5625 C 196.519531 313.5625 196.578125 313.621094 196.578125 313.738281 C 196.578125 313.859375 196.5 313.976562 196.339844 314.097656 C 196.140625 314.253906 195.796875 314.453125 195.300781 314.691406 C 194.800781 314.929688 194.238281 315.15625 193.601562 315.375 C 192.96875 315.59375 192.292969 315.78125 191.578125 315.941406 C 190.863281 316.101562 190.148438 316.179688 189.433594 316.179688 C 188.164062 316.179688 187.132812 315.851562 186.339844 315.195312 C 185.546875 314.542969 185.148438 313.421875 185.148438 311.835938 C 185.148438 310.605469 185.316406 309.34375 185.65625 308.054688 C 185.992188 306.765625 186.261719 305.601562 186.460938 304.570312 C 186.617188 303.777344 186.714844 303.082031 186.757812 302.488281 C 186.796875 301.890625 186.816406 301.335938 186.816406 300.820312 C 186.816406 299.671875 186.6875 298.726562 186.429688 297.992188 C 186.171875 297.257812 185.804688 296.683594 185.328125 296.265625 C 184.851562 295.851562 184.277344 295.5625 183.601562 295.402344 C 182.925781 295.246094 182.191406 295.164062 181.398438 295.164062 L 177.589844 295.164062 L 172.171875 314.632812 L 177.289062 314.632812 L 177.050781 315.585938 L 161.097656 315.585938 L 161.335938 314.632812 L 166.457031 314.632812 L 176.992188 276.589844 L 171.875 276.589844 L 172.109375 275.578125 L 188.246094 275.578125 C 191.855469 275.578125 194.484375 276.332031 196.132812 277.839844 C 197.777344 279.347656 198.605469 281.234375 198.605469 283.496094 C 198.605469 284.648438 198.394531 285.828125 197.976562 287.039062 C 197.5625 288.25 196.867188 289.378906 195.894531 290.433594 C 194.921875 291.484375 193.640625 292.40625 192.054688 293.199219 C 190.46875 293.996094 188.484375 294.570312 186.101562 294.925781 C 188.402344 295.125 190.148438 295.949219 191.339844 297.398438 C 192.53125 298.847656 193.125 300.582031 193.125 302.605469 C 193.125 303.558594 193.027344 304.53125 192.828125 305.523438 C 192.628906 306.515625 192.414062 307.46875 192.175781 308.382812 C 191.9375 309.292969 191.71875 310.136719 191.519531 310.910156 C 191.320312 311.683594 191.222656 312.351562 191.222656 312.90625 C 191.222656 313.382812 191.359375 313.769531 191.636719 314.066406 " fill-opacity="1" fill-rule="nonzero"/><path fill="#ffe493" d="M 243.429688 287.367188 C 243.550781 286.136719 243.609375 285.023438 243.609375 284.03125 C 243.609375 282.5625 243.480469 281.351562 243.222656 280.402344 C 242.964844 279.449219 242.585938 278.683594 242.09375 278.109375 C 241.59375 277.535156 240.980469 277.125 240.246094 276.886719 C 239.511719 276.648438 238.6875 276.53125 237.777344 276.53125 L 233.546875 276.53125 L 222.953125 314.632812 L 228.132812 314.632812 L 227.832031 315.585938 L 211.820312 315.585938 L 212.058594 314.632812 L 217.238281 314.632812 L 227.773438 276.53125 L 223.367188 276.53125 C 222.417969 276.53125 221.464844 276.691406 220.511719 277.007812 C 219.558594 277.324219 218.625 277.878906 217.714844 278.671875 C 216.800781 279.46875 215.90625 280.53125 215.035156 281.859375 C 214.160156 283.1875 213.289062 284.886719 212.414062 286.949219 L 211.164062 286.949219 L 214.855469 276.589844 C 215.054688 275.917969 215.570312 275.578125 216.402344 275.578125 L 245.394531 275.578125 C 245.714844 275.578125 245.972656 275.628906 246.171875 275.726562 C 246.367188 275.828125 246.46875 276.074219 246.46875 276.472656 L 244.683594 287.367188 Z M 243.429688 287.367188 " fill-opacity="1" fill-rule="nonzero"/><path fill="#ffe493" d="M 272.542969 276.53125 L 267.425781 276.53125 L 262.660156 293.792969 L 278.558594 293.792969 L 283.378906 276.53125 L 278.257812 276.53125 L 278.496094 275.578125 L 294.15625 275.578125 L 293.917969 276.53125 L 289.035156 276.53125 L 278.496094 314.632812 L 283.617188 314.632812 L 283.378906 315.585938 L 267.363281 315.585938 L 267.664062 314.632812 L 272.78125 314.632812 L 278.257812 294.808594 L 262.363281 294.808594 L 256.886719 314.632812 L 262.066406 314.632812 L 261.828125 315.585938 L 245.8125 315.585938 L 246.050781 314.632812 L 251.171875 314.632812 L 261.769531 276.53125 L 256.589844 276.53125 L 256.886719 275.578125 L 272.78125 275.578125 Z M 272.542969 276.53125 " fill-opacity="1" fill-rule="nonzero"/><path fill="#ffe493" d="M 318.980469 276.53125 L 313.503906 276.53125 L 318.980469 293.617188 L 332.730469 276.53125 L 326.957031 276.53125 L 327.195312 275.578125 L 339.398438 275.578125 L 339.101562 276.53125 L 334.28125 276.53125 L 319.871094 294.390625 L 314.277344 314.632812 L 320.050781 314.632812 L 319.8125 315.585938 L 302.546875 315.585938 L 302.847656 314.632812 L 308.5625 314.632812 L 313.621094 296.472656 L 307.132812 276.53125 L 302.371094 276.53125 L 302.609375 275.578125 L 319.21875 275.578125 Z M 318.980469 276.53125 " fill-opacity="1" fill-rule="nonzero"/><path fill="#ffe493" d="M 156.285156 360.40625 L 155.777344 360.40625 C 155.734375 360.144531 155.617188 359.851562 155.429688 359.523438 C 155.175781 359.160156 154.929688 358.976562 154.699219 358.976562 C 154.65625 358.976562 154.539062 359.050781 154.347656 359.191406 L 153.652344 359.585938 C 152.210938 360.398438 150.785156 360.804688 149.367188 360.804688 C 146.511719 360.804688 144.183594 359.675781 142.386719 357.425781 C 140.734375 355.378906 139.910156 352.945312 139.910156 350.125 C 139.910156 347.386719 140.777344 344.976562 142.511719 342.886719 C 144.375 340.617188 146.703125 339.480469 149.492188 339.480469 C 150.722656 339.480469 152.074219 339.835938 153.554688 340.542969 C 153.726562 340.625 153.96875 340.746094 154.285156 340.910156 L 154.667969 341.121094 C 155.175781 341.121094 155.523438 340.714844 155.714844 339.90625 L 156.222656 339.90625 L 156.222656 345.351562 L 155.714844 345.351562 C 155.3125 343.789062 154.613281 342.5625 153.621094 341.667969 C 152.519531 340.695312 151.15625 340.210938 149.527344 340.210938 C 147.070312 340.210938 145.429688 341.425781 144.605469 343.859375 C 144.121094 345.257812 143.875 347.449219 143.875 350.429688 C 143.875 353.210938 144.128906 355.277344 144.636719 356.636719 C 145.464844 358.929688 147.039062 360.074219 149.367188 360.074219 C 150.996094 360.074219 152.390625 359.503906 153.554688 358.371094 C 154.550781 357.375 155.28125 356.066406 155.746094 354.445312 L 156.285156 354.445312 Z M 156.285156 360.40625 " fill-opacity="1" fill-rule="nonzero"/><path fill="#ffe493" d="M 187.066406 350.035156 C 187.066406 347.054688 186.855469 344.925781 186.433594 343.648438 C 185.628906 341.335938 184.007812 340.179688 181.578125 340.179688 C 179.144531 340.179688 177.535156 341.335938 176.753906 343.648438 C 176.308594 344.945312 176.085938 347.066406 176.085938 350.003906 C 176.085938 353.027344 176.308594 355.1875 176.753906 356.484375 C 177.535156 358.878906 179.152344 360.074219 181.609375 360.074219 C 184.039062 360.074219 185.648438 358.878906 186.433594 356.484375 C 186.855469 355.1875 187.066406 353.035156 187.066406 350.035156 M 191.035156 350.125 C 191.035156 352.84375 190.1875 355.257812 188.496094 357.367188 C 186.652344 359.636719 184.359375 360.773438 181.609375 360.773438 C 178.835938 360.773438 176.53125 359.636719 174.691406 357.367188 C 172.976562 355.257812 172.121094 352.84375 172.121094 350.125 C 172.121094 347.410156 172.964844 344.996094 174.660156 342.886719 C 176.5 340.617188 178.792969 339.480469 181.542969 339.480469 C 184.316406 339.480469 186.632812 340.617188 188.496094 342.886719 C 190.1875 344.976562 191.035156 347.386719 191.035156 350.125 " fill-opacity="1" fill-rule="nonzero"/><path fill="#ffe493" d="M 210.023438 358.175781 C 210.023438 359.121094 209.257812 359.886719 208.3125 359.886719 C 207.367188 359.886719 206.601562 359.121094 206.601562 358.175781 C 206.601562 357.234375 207.367188 356.46875 208.3125 356.46875 C 209.257812 356.46875 210.023438 357.234375 210.023438 358.175781 " fill-opacity="1" fill-rule="nonzero"/></svg>