<svg xmlns="http://www.w3.org/2000/svg" xmlns:xlink="http://www.w3.org/1999/xlink" width="500" zoomAndPan="magnify" viewBox="0 0 375 374.999991" height="500" preserveAspectRatio="xMidYMid meet" version="1.0"><path fill="#000000" d="M 129.085938 254.492188 C 128.976562 254.195312 117.917969 220.65625 117.917969 174.554688 C 117.917969 127.324219 139.582031 91.070312 150.070312 80.914062 L 152.136719 83.050781 C 141.941406 92.921875 120.890625 128.277344 120.890625 174.554688 C 120.890625 220.085938 131.769531 253.179688 131.878906 253.46875 Z M 129.085938 254.492188 " fill-opacity="1" fill-rule="nonzero"/><path fill="#000000" d="M 138.21875 100.148438 C 138.21875 100.148438 136.980469 85.859375 125.222656 72.582031 C 113.460938 59.304688 103.34375 59.554688 95.753906 54.625 C 95.753906 54.625 108.78125 57.28125 117.761719 58.542969 C 126.738281 59.808594 133.949219 67.648438 136.476562 78.527344 C 139.007812 89.402344 138.21875 100.148438 138.21875 100.148438 " fill-opacity="1" fill-rule="nonzero"/><path fill="#000000" d="M 146.386719 87.414062 C 146.386719 87.414062 146.804688 69.167969 135.253906 52.980469 C 123.703125 36.792969 115.863281 31.101562 115.863281 31.101562 C 115.863281 31.101562 128.636719 38.058594 137.234375 44.632812 C 145.835938 51.210938 150.226562 75.8125 146.386719 87.414062 " fill-opacity="1" fill-rule="nonzero"/><path fill="#000000" d="M 151.777344 84.722656 C 151.777344 84.722656 158.609375 74.730469 153.421875 57.277344 C 148.238281 39.828125 138.078125 29.332031 135.253906 23.640625 C 144.191406 33.25 156.332031 43.242188 159.113281 51.589844 C 161.894531 59.933594 162.65625 71.316406 151.777344 84.722656 " fill-opacity="1" fill-rule="nonzero"/><path fill="#000000" d="M 152.789062 78.777344 C 152.789062 78.777344 165.816406 55.761719 172.644531 42.863281 C 179.472656 29.964844 189.972656 19.085938 216.78125 25.285156 C 243.589844 31.480469 257.375 44.128906 257.375 44.128906 C 257.375 44.128906 236.890625 33.757812 211.34375 35.402344 C 203.25 35.78125 186.683594 38.058594 176.945312 48.300781 C 167.207031 58.542969 156.585938 75.238281 152.789062 78.777344 " fill-opacity="1" fill-rule="nonzero"/><path fill="#000000" d="M 156.585938 75.238281 C 156.585938 75.238281 167.207031 62.90625 175.046875 56.078125 C 182.890625 49.25 197.433594 38.371094 209.320312 41.15625 C 221.207031 43.9375 228.667969 53.042969 235.878906 59.175781 C 243.085938 65.308594 250.484375 71.757812 250.484375 71.757812 C 250.484375 71.757812 231.703125 59.113281 221.207031 54.558594 C 210.710938 50.007812 192.4375 53.105469 179.789062 58.988281 C 167.144531 64.867188 156.585938 75.238281 156.585938 75.238281 " fill-opacity="1" fill-rule="nonzero"/><path fill="#000000" d="M 155.824219 77.007812 C 155.824219 77.007812 175.617188 61.5625 189.589844 57.089844 C 203.566406 52.617188 219.375 53.105469 230.882812 67.050781 C 242.390625 80.992188 258.640625 100.339844 256.300781 100.089844 C 253.960938 99.835938 236.761719 83.710938 220.132812 76.1875 C 203.503906 68.660156 177.765625 64.867188 155.824219 78.019531 C 155.507812 77.765625 155.824219 77.007812 155.824219 77.007812 " fill-opacity="1" fill-rule="nonzero"/><path fill="#000000" d="M 151.839844 80.042969 C 151.839844 80.042969 190.792969 68.027344 214.25 80.167969 C 227.339844 86.175781 229.933594 102.554688 233.285156 117.855469 C 236.636719 133.15625 237.964844 144.855469 237.710938 144.792969 C 237.457031 144.730469 226.582031 119.4375 216.589844 106.285156 C 206.601562 93.132812 189.734375 83.160156 177.449219 80.042969 C 165.167969 76.925781 151.839844 80.042969 151.839844 80.042969 " fill-opacity="1" fill-rule="nonzero"/><path fill="#000000" d="M 152.199219 81.980469 C 152.199219 81.980469 178.082031 82.066406 197.136719 91.257812 C 216.191406 100.445312 218.382812 114.695312 217.707031 134.84375 C 217.035156 154.992188 214.167969 167.976562 213.242188 167.472656 C 212.3125 166.964844 209.785156 137.375 201.605469 120.933594 C 193.429688 104.492188 182.132812 91.574219 170.832031 86.957031 C 159.535156 82.339844 152.199219 81.980469 152.199219 81.980469 " fill-opacity="1" fill-rule="nonzero"/><path fill="#034f1b" d="M 166.789062 253.886719 C 166.703125 253.644531 157.894531 229.191406 157.894531 191.496094 C 157.894531 152.878906 175.605469 123.238281 184.183594 114.929688 L 185.871094 116.675781 C 177.535156 124.75 160.324219 153.660156 160.324219 191.496094 C 160.324219 228.726562 168.984375 252.8125 169.070312 253.050781 Z M 166.789062 253.886719 " fill-opacity="1" fill-rule="nonzero"/><path fill="#034f1b" d="M 174.492188 130.65625 C 174.492188 130.65625 173.480469 118.976562 163.863281 108.117188 C 154.246094 97.261719 145.976562 97.464844 139.769531 93.433594 C 139.769531 93.433594 150.421875 95.605469 157.761719 96.640625 C 165.105469 97.671875 171 104.085938 173.066406 112.976562 C 175.136719 121.871094 174.492188 130.65625 174.492188 130.65625 " fill-opacity="1" fill-rule="nonzero"/><path fill="#034f1b" d="M 181.167969 120.242188 C 181.167969 120.242188 181.511719 105.324219 172.066406 92.089844 C 162.625 78.855469 156.210938 74.199219 156.210938 74.199219 C 156.210938 74.199219 166.65625 79.886719 173.6875 85.265625 C 180.71875 90.640625 184.308594 110.757812 181.167969 120.242188 " fill-opacity="1" fill-rule="nonzero"/><path fill="#034f1b" d="M 185.578125 118.042969 C 185.578125 118.042969 191.164062 109.875 186.925781 95.605469 C 182.683594 81.335938 174.378906 72.753906 172.066406 68.101562 C 179.375 75.957031 189.300781 84.128906 191.578125 90.953125 C 193.851562 97.777344 194.472656 107.082031 185.578125 118.042969 " fill-opacity="1" fill-rule="nonzero"/><path fill="#034f1b" d="M 186.40625 113.183594 C 186.40625 113.183594 197.058594 94.363281 202.640625 83.816406 C 208.226562 73.269531 216.808594 64.378906 238.730469 69.445312 C 260.652344 74.511719 271.921875 84.851562 271.921875 84.851562 C 271.921875 84.851562 255.171875 76.371094 234.28125 77.714844 C 227.664062 78.027344 214.117188 79.886719 206.15625 88.265625 C 198.195312 96.640625 189.507812 110.289062 186.40625 113.183594 " fill-opacity="1" fill-rule="nonzero"/><path fill="#034f1b" d="M 189.507812 110.289062 C 189.507812 110.289062 198.195312 100.207031 204.605469 94.625 C 211.015625 89.039062 222.910156 80.144531 232.628906 82.421875 C 242.347656 84.695312 248.449219 92.140625 254.34375 97.15625 C 260.238281 102.171875 266.285156 107.445312 266.285156 107.445312 C 266.285156 107.445312 250.929688 97.105469 242.347656 93.382812 C 233.765625 89.660156 218.824219 92.191406 208.484375 97 C 198.144531 101.808594 189.507812 110.289062 189.507812 110.289062 " fill-opacity="1" fill-rule="nonzero"/><path fill="#034f1b" d="M 188.886719 111.738281 C 188.886719 111.738281 205.070312 99.109375 216.496094 95.449219 C 227.925781 91.792969 240.847656 92.195312 250.257812 103.59375 C 259.667969 114.996094 272.957031 130.816406 271.042969 130.609375 C 269.128906 130.402344 255.066406 117.21875 241.46875 111.066406 C 227.871094 104.914062 206.828125 101.808594 188.886719 112.5625 C 188.628906 112.355469 188.886719 111.738281 188.886719 111.738281 " fill-opacity="1" fill-rule="nonzero"/><path fill="#034f1b" d="M 185.632812 114.21875 C 185.632812 114.21875 217.480469 104.394531 236.660156 114.324219 C 247.363281 119.234375 249.484375 132.625 252.222656 145.136719 C 254.964844 157.648438 256.050781 167.214844 255.84375 167.160156 C 255.636719 167.109375 246.742188 146.429688 238.574219 135.675781 C 230.40625 124.921875 216.613281 116.769531 206.570312 114.21875 C 196.527344 111.667969 185.632812 114.21875 185.632812 114.21875 " fill-opacity="1" fill-rule="nonzero"/><path fill="#034f1b" d="M 185.925781 115.804688 C 185.925781 115.804688 207.085938 115.875 222.667969 123.386719 C 238.246094 130.902344 240.039062 142.550781 239.488281 159.027344 C 238.9375 175.503906 236.59375 186.117188 235.832031 185.707031 C 235.074219 185.292969 233.007812 161.09375 226.320312 147.652344 C 219.632812 134.210938 210.398438 123.648438 201.160156 119.871094 C 191.921875 116.09375 185.925781 115.804688 185.925781 115.804688 " fill-opacity="1" fill-rule="nonzero"/><path fill="#034f1b" d="M 61.5 276.023438 L 56.171875 276.023438 L 57.753906 305.109375 L 73.496094 276.023438 L 68.464844 276.023438 L 68.699219 275.085938 L 80.109375 275.085938 L 79.816406 276.023438 L 74.785156 276.023438 L 53.597656 315.234375 L 52.542969 315.234375 L 50.378906 276.023438 L 45.636719 276.023438 L 45.929688 275.085938 L 61.792969 275.085938 Z M 61.5 276.023438 " fill-opacity="1" fill-rule="nonzero"/><path fill="#034f1b" d="M 114.054688 285.386719 L 114.054688 285.152344 C 114.09375 284.917969 114.125 284.65625 114.144531 284.363281 C 114.164062 284.070312 114.171875 283.769531 114.171875 283.453125 C 114.171875 282.714844 114.09375 281.902344 113.9375 281.027344 C 113.78125 280.148438 113.480469 279.339844 113.03125 278.597656 C 112.582031 277.855469 111.976562 277.242188 111.21875 276.753906 C 110.457031 276.265625 109.492188 276.019531 108.320312 276.019531 L 100.828125 276.019531 L 96.085938 293.230469 L 100.417969 293.230469 C 101.238281 293.230469 101.941406 293.0625 102.527344 292.730469 C 103.109375 292.398438 103.636719 291.972656 104.105469 291.445312 C 104.574219 290.917969 104.972656 290.332031 105.304688 289.6875 C 105.636719 289.042969 105.957031 288.410156 106.273438 287.785156 C 106.464844 287.199219 106.699219 286.90625 106.972656 286.90625 C 107.207031 286.90625 107.324219 287.082031 107.324219 287.433594 L 107.324219 287.726562 C 107.324219 287.84375 107.285156 288.019531 107.207031 288.253906 L 104.046875 300.078125 C 103.851562 300.699219 103.636719 301.011719 103.402344 301.011719 C 103.089844 301.011719 102.9375 300.605469 102.9375 299.785156 C 102.9375 299.003906 102.914062 298.273438 102.878906 297.589844 C 102.835938 296.90625 102.730469 296.3125 102.554688 295.804688 C 102.378906 295.296875 102.105469 294.898438 101.734375 294.605469 C 101.363281 294.3125 100.828125 294.164062 100.125 294.164062 L 95.796875 294.164062 L 90.46875 313.480469 L 98.136719 313.480469 C 100.007812 313.480469 101.589844 313.214844 102.878906 312.691406 C 104.164062 312.164062 105.265625 311.449219 106.183594 310.554688 C 107.101562 309.65625 107.890625 308.621094 108.554688 307.449219 C 109.21875 306.28125 109.859375 305.070312 110.484375 303.824219 C 110.875 303.003906 111.207031 302.59375 111.480469 302.59375 C 111.636719 302.59375 111.714844 302.75 111.714844 303.0625 L 111.714844 303.355469 C 111.714844 303.472656 111.675781 303.628906 111.597656 303.824219 L 108.90625 312.542969 C 108.710938 313.089844 108.464844 313.539062 108.171875 313.890625 C 107.882812 314.238281 107.382812 314.417969 106.679688 314.417969 L 79.699219 314.417969 L 79.933594 313.480469 L 84.851562 313.480469 L 95.210938 276.019531 L 90.175781 276.019531 L 90.46875 275.085938 L 115.402344 275.085938 C 116.414062 275.085938 116.921875 275.476562 116.921875 276.257812 C 116.921875 276.453125 116.902344 276.605469 116.863281 276.722656 L 114.933594 285.386719 C 114.894531 285.777344 114.71875 285.972656 114.40625 285.972656 C 114.171875 285.972656 114.054688 285.777344 114.054688 285.386719 " fill-opacity="1" fill-rule="nonzero"/><path fill="#034f1b" d="M 134.773438 301.246094 L 145.835938 301.246094 L 148.058594 284.332031 Z M 123.828125 313.480469 L 154.671875 274.558594 L 155.316406 274.558594 L 150.285156 313.480469 L 155.316406 313.480469 L 155.023438 314.417969 L 137.875 314.417969 L 138.109375 313.480469 L 144.253906 313.480469 L 145.71875 302.183594 L 134.070312 302.183594 L 125 313.480469 L 131.789062 313.480469 L 131.554688 314.417969 L 118.5625 314.417969 L 118.796875 313.480469 Z M 123.828125 313.480469 " fill-opacity="1" fill-rule="nonzero"/><path fill="#034f1b" d="M 186.101562 293.40625 C 187.78125 293.40625 189.214844 293.054688 190.40625 292.351562 C 191.59375 291.648438 192.570312 290.742188 193.332031 289.628906 C 194.09375 288.515625 194.648438 287.277344 195 285.914062 C 195.351562 284.546875 195.527344 283.203125 195.527344 281.875 C 195.527344 280 195.078125 278.558594 194.179688 277.542969 C 193.28125 276.53125 191.800781 276.019531 189.730469 276.019531 L 185.285156 276.019531 L 180.425781 293.40625 Z M 194.003906 312.921875 C 194.277344 313.214844 194.765625 313.363281 195.46875 313.363281 C 195.933594 313.363281 196.433594 313.285156 196.960938 313.128906 C 197.488281 312.972656 197.964844 312.777344 198.394531 312.542969 C 198.550781 312.464844 198.648438 312.425781 198.6875 312.425781 C 198.804688 312.425781 198.863281 312.484375 198.863281 312.601562 C 198.863281 312.71875 198.785156 312.835938 198.628906 312.953125 C 198.433594 313.109375 198.089844 313.304688 197.601562 313.539062 C 197.113281 313.773438 196.558594 313.996094 195.933594 314.210938 C 195.3125 314.425781 194.648438 314.609375 193.945312 314.765625 C 193.242188 314.921875 192.539062 315 191.839844 315 C 190.589844 315 189.574219 314.679688 188.792969 314.035156 C 188.015625 313.390625 187.625 312.289062 187.625 310.730469 C 187.625 309.519531 187.789062 308.28125 188.121094 307.011719 C 188.453125 305.746094 188.714844 304.601562 188.914062 303.589844 C 189.066406 302.808594 189.164062 302.125 189.203125 301.539062 C 189.242188 300.953125 189.261719 300.410156 189.261719 299.902344 C 189.261719 298.769531 189.136719 297.84375 188.882812 297.121094 C 188.628906 296.398438 188.269531 295.832031 187.800781 295.421875 C 187.332031 295.015625 186.765625 294.730469 186.101562 294.574219 C 185.4375 294.417969 184.71875 294.339844 183.9375 294.339844 L 180.191406 294.339844 L 174.867188 313.480469 L 179.898438 313.480469 L 179.664062 314.414062 L 163.980469 314.414062 L 164.214844 313.480469 L 169.246094 313.480469 L 179.605469 276.078125 L 174.574219 276.078125 L 174.808594 275.085938 L 190.667969 275.085938 C 194.21875 275.085938 196.804688 275.828125 198.421875 277.308594 C 200.042969 278.792969 200.851562 280.644531 200.851562 282.871094 C 200.851562 284 200.648438 285.160156 200.238281 286.351562 C 199.828125 287.542969 199.144531 288.65625 198.1875 289.6875 C 197.230469 290.722656 195.972656 291.628906 194.414062 292.410156 C 192.851562 293.191406 190.902344 293.753906 188.5625 294.105469 C 190.824219 294.300781 192.539062 295.113281 193.710938 296.535156 C 194.882812 297.960938 195.46875 299.667969 195.46875 301.65625 C 195.46875 302.59375 195.371094 303.550781 195.175781 304.523438 C 194.980469 305.5 194.765625 306.4375 194.53125 307.335938 C 194.296875 308.230469 194.082031 309.0625 193.886719 309.820312 C 193.691406 310.582031 193.59375 311.234375 193.59375 311.78125 C 193.59375 312.25 193.730469 312.632812 194.003906 312.921875 " fill-opacity="1" fill-rule="nonzero"/><path fill="#034f1b" d="M 244.921875 286.671875 C 245.039062 285.464844 245.097656 284.371094 245.097656 283.394531 C 245.097656 281.953125 244.972656 280.761719 244.71875 279.828125 C 244.464844 278.890625 244.09375 278.140625 243.605469 277.574219 C 243.117188 277.007812 242.511719 276.605469 241.792969 276.375 C 241.070312 276.140625 240.257812 276.023438 239.363281 276.023438 L 235.207031 276.023438 L 224.789062 313.480469 L 229.878906 313.480469 L 229.589844 314.417969 L 213.84375 314.417969 L 214.078125 313.480469 L 219.171875 313.480469 L 229.53125 276.023438 L 225.199219 276.023438 C 224.261719 276.023438 223.324219 276.179688 222.390625 276.488281 C 221.453125 276.804688 220.535156 277.347656 219.640625 278.128906 C 218.738281 278.910156 217.863281 279.953125 217.003906 281.261719 C 216.144531 282.566406 215.289062 284.234375 214.429688 286.265625 L 213.199219 286.265625 L 216.828125 276.082031 C 217.023438 275.417969 217.53125 275.085938 218.351562 275.085938 L 246.851562 275.085938 C 247.164062 275.085938 247.417969 275.136719 247.613281 275.230469 C 247.808594 275.328125 247.90625 275.574219 247.90625 275.964844 L 246.152344 286.671875 Z M 244.921875 286.671875 " fill-opacity="1" fill-rule="nonzero"/><path fill="#034f1b" d="M 273.542969 276.023438 L 268.511719 276.023438 L 263.828125 292.996094 L 279.453125 292.996094 L 284.195312 276.023438 L 279.160156 276.023438 L 279.394531 275.085938 L 294.789062 275.085938 L 294.554688 276.023438 L 289.753906 276.023438 L 279.394531 313.480469 L 284.429688 313.480469 L 284.195312 314.414062 L 268.453125 314.414062 L 268.742188 313.480469 L 273.777344 313.480469 L 279.160156 293.988281 L 263.535156 293.988281 L 258.152344 313.480469 L 263.242188 313.480469 L 263.007812 314.414062 L 247.265625 314.414062 L 247.496094 313.480469 L 252.53125 313.480469 L 262.949219 276.023438 L 257.855469 276.023438 L 258.152344 275.085938 L 273.777344 275.085938 Z M 273.542969 276.023438 " fill-opacity="1" fill-rule="nonzero"/><path fill="#034f1b" d="M 319.195312 276.023438 L 313.808594 276.023438 L 319.195312 292.820312 L 332.714844 276.023438 L 327.035156 276.023438 L 327.269531 275.085938 L 339.269531 275.085938 L 338.976562 276.023438 L 334.234375 276.023438 L 320.070312 293.578125 L 314.570312 313.480469 L 320.246094 313.480469 L 320.011719 314.414062 L 303.039062 314.414062 L 303.332031 313.480469 L 308.953125 313.480469 L 313.925781 295.628906 L 307.546875 276.023438 L 302.863281 276.023438 L 303.097656 275.085938 L 319.425781 275.085938 Z M 319.195312 276.023438 " fill-opacity="1" fill-rule="nonzero"/><path fill="#034f1b" d="M 159.25 358.480469 L 158.75 358.480469 C 158.707031 358.222656 158.59375 357.933594 158.40625 357.613281 C 158.15625 357.253906 157.917969 357.074219 157.6875 357.074219 C 157.644531 357.074219 157.53125 357.144531 157.34375 357.285156 L 156.660156 357.675781 C 155.242188 358.472656 153.839844 358.871094 152.445312 358.871094 C 149.640625 358.871094 147.351562 357.765625 145.582031 355.550781 C 143.960938 353.539062 143.148438 351.144531 143.148438 348.375 C 143.148438 345.683594 144.003906 343.308594 145.707031 341.257812 C 147.539062 339.023438 149.828125 337.90625 152.570312 337.90625 C 153.777344 337.90625 155.109375 338.253906 156.566406 338.953125 C 156.730469 339.03125 156.96875 339.152344 157.28125 339.3125 L 157.65625 339.523438 C 158.15625 339.523438 158.5 339.125 158.6875 338.324219 L 159.1875 338.324219 L 159.1875 343.679688 L 158.6875 343.679688 C 158.289062 342.144531 157.605469 340.9375 156.628906 340.058594 C 155.546875 339.101562 154.203125 338.625 152.601562 338.625 C 150.191406 338.625 148.578125 339.820312 147.765625 342.210938 C 147.289062 343.589844 147.050781 345.742188 147.050781 348.671875 C 147.050781 351.40625 147.300781 353.4375 147.796875 354.773438 C 148.609375 357.027344 150.160156 358.152344 152.445312 358.152344 C 154.046875 358.152344 155.421875 357.59375 156.566406 356.476562 C 157.542969 355.5 158.261719 354.214844 158.71875 352.621094 L 159.25 352.621094 Z M 159.25 358.480469 " fill-opacity="1" fill-rule="nonzero"/><path fill="#034f1b" d="M 189.507812 348.285156 C 189.507812 345.355469 189.300781 343.261719 188.886719 342.003906 C 188.09375 339.730469 186.503906 338.59375 184.113281 338.59375 C 181.71875 338.59375 180.140625 339.730469 179.371094 342.003906 C 178.933594 343.28125 178.714844 345.363281 178.714844 348.253906 C 178.714844 351.226562 178.933594 353.347656 179.371094 354.625 C 180.140625 356.976562 181.730469 358.152344 184.144531 358.152344 C 186.535156 358.152344 188.117188 356.976562 188.886719 354.625 C 189.300781 353.347656 189.507812 351.234375 189.507812 348.285156 M 193.410156 348.375 C 193.410156 351.046875 192.578125 353.417969 190.914062 355.492188 C 189.105469 357.726562 186.847656 358.839844 184.144531 358.839844 C 181.417969 358.839844 179.152344 357.726562 177.34375 355.492188 C 175.65625 353.417969 174.816406 351.046875 174.816406 348.375 C 174.816406 345.703125 175.648438 343.332031 177.3125 341.257812 C 179.121094 339.023438 181.378906 337.90625 184.082031 337.90625 C 186.804688 337.90625 189.082031 339.023438 190.914062 341.257812 C 192.578125 343.3125 193.410156 345.683594 193.410156 348.375 " fill-opacity="1" fill-rule="nonzero"/><path fill="#034f1b" d="M 212.078125 356.289062 C 212.078125 357.21875 211.324219 357.96875 210.394531 357.96875 C 209.46875 357.96875 208.714844 357.21875 208.714844 356.289062 C 208.714844 355.359375 209.46875 354.609375 210.394531 354.609375 C 211.324219 354.609375 212.078125 355.359375 212.078125 356.289062 " fill-opacity="1" fill-rule="nonzero"/></svg>